<svg width="1540" height="66" viewBox="0 0 1540 66" fill="none" xmlns="http://www.w3.org/2000/svg">
<rect x="0.375" width="32.75" height="32.75" fill="#D43925"/>
<rect x="33.125" width="32.75" height="32.75" fill="#FCFCFC"/>
<rect x="65.875" width="32.75" height="32.75" fill="#D43925"/>
<rect x="98.625" width="32.75" height="32.75" fill="#FCFCFC"/>
<rect x="131.375" width="32.75" height="32.75" fill="#D43925"/>
<rect x="164.125" width="32.75" height="32.75" fill="#FCFCFC"/>
<rect x="196.875" width="32.75" height="32.75" fill="#D43925"/>
<rect x="229.625" width="32.75" height="32.75" fill="#FCFCFC"/>
<rect x="262.375" width="32.75" height="32.75" fill="#D43925"/>
<rect x="295.125" width="32.75" height="32.75" fill="#FCFCFC"/>
<rect x="327.875" width="32.75" height="32.75" fill="#D43925"/>
<rect x="360.625" width="32.75" height="32.75" fill="#FCFCFC"/>
<rect x="393.375" width="32.75" height="32.75" fill="#D43925"/>
<rect x="426.125" width="32.75" height="32.75" fill="#FCFCFC"/>
<rect x="458.875" width="32.75" height="32.75" fill="#D43925"/>
<rect x="491.625" width="32.75" height="32.75" fill="#FCFCFC"/>
<rect x="524.375" width="32.75" height="32.75" fill="#D43925"/>
<rect x="557.125" width="32.75" height="32.75" fill="#FCFCFC"/>
<rect x="589.875" width="32.75" height="32.75" fill="#D43925"/>
<rect x="622.625" width="32.75" height="32.75" fill="#FCFCFC"/>
<rect x="655.375" width="32.75" height="32.75" fill="#D43925"/>
<rect x="688.125" width="32.75" height="32.75" fill="#FCFCFC"/>
<rect x="720.875" width="32.75" height="32.75" fill="#D43925"/>
<rect x="753.625" width="32.75" height="32.75" fill="#FCFCFC"/>
<rect x="786.375" width="32.75" height="32.75" fill="#D43925"/>
<rect x="819.125" width="32.75" height="32.75" fill="#FCFCFC"/>
<rect x="851.875" width="32.75" height="32.75" fill="#D43925"/>
<rect x="884.625" width="32.75" height="32.75" fill="#FCFCFC"/>
<rect x="917.375" width="32.75" height="32.75" fill="#D43925"/>
<rect x="950.125" width="32.75" height="32.75" fill="#FCFCFC"/>
<rect x="982.875" width="32.75" height="32.75" fill="#D43925"/>
<rect x="1015.62" width="32.75" height="32.75" fill="#FCFCFC"/>
<rect x="1048.38" width="32.75" height="32.75" fill="#D43925"/>
<rect x="1081.12" width="32.75" height="32.75" fill="#FCFCFC"/>
<rect x="1113.88" width="32.75" height="32.75" fill="#D43925"/>
<rect x="1146.62" width="32.75" height="32.75" fill="#FCFCFC"/>
<rect x="1179.38" width="32.75" height="32.75" fill="#D43925"/>
<rect x="1212.12" width="32.75" height="32.75" fill="#FCFCFC"/>
<rect x="1244.88" width="32.75" height="32.75" fill="#D43925"/>
<rect x="1277.62" width="32.75" height="32.75" fill="#FCFCFC"/>
<rect x="1310.38" width="32.75" height="32.75" fill="#D43925"/>
<rect x="1343.12" width="32.75" height="32.75" fill="#FCFCFC"/>
<rect x="1375.88" width="32.75" height="32.75" fill="#D43925"/>
<rect x="1408.62" width="32.75" height="32.75" fill="#FCFCFC"/>
<rect x="1441.38" width="32.75" height="32.75" fill="#D43925"/>
<rect x="1474.12" width="32.75" height="32.75" fill="#FCFCFC"/>
<rect x="1506.88" width="32.75" height="32.75" fill="#D43925"/>
<rect x="0.375" y="32.75" width="32.75" height="32.75" fill="#FCFCFC"/>
<rect x="33.125" y="32.75" width="32.75" height="32.75" fill="#D43925"/>
<rect x="65.875" y="32.75" width="32.75" height="32.75" fill="#FCFCFC"/>
<rect x="98.625" y="32.75" width="32.75" height="32.75" fill="#D43925"/>
<rect x="131.375" y="32.75" width="32.75" height="32.75" fill="#FCFCFC"/>
<rect x="164.125" y="32.75" width="32.75" height="32.75" fill="#D43925"/>
<rect x="196.875" y="32.75" width="32.75" height="32.75" fill="#FCFCFC"/>
<rect x="229.625" y="32.75" width="32.75" height="32.75" fill="#D43925"/>
<rect x="262.375" y="32.75" width="32.75" height="32.75" fill="#FCFCFC"/>
<rect x="295.125" y="32.75" width="32.75" height="32.75" fill="#D43925"/>
<rect x="327.875" y="32.75" width="32.75" height="32.75" fill="#FCFCFC"/>
<rect x="360.625" y="32.75" width="32.75" height="32.75" fill="#D43925"/>
<rect x="393.375" y="32.75" width="32.75" height="32.75" fill="#FCFCFC"/>
<rect x="426.125" y="32.75" width="32.75" height="32.75" fill="#D43925"/>
<rect x="458.875" y="32.75" width="32.75" height="32.75" fill="#FCFCFC"/>
<rect x="491.625" y="32.75" width="32.75" height="32.75" fill="#D43925"/>
<rect x="524.375" y="32.75" width="32.75" height="32.75" fill="#FCFCFC"/>
<rect x="557.125" y="32.75" width="32.75" height="32.75" fill="#D43925"/>
<rect x="589.875" y="32.75" width="32.75" height="32.75" fill="#FCFCFC"/>
<rect x="622.625" y="32.75" width="32.75" height="32.75" fill="#D43925"/>
<rect x="655.375" y="32.75" width="32.75" height="32.75" fill="#FCFCFC"/>
<rect x="688.125" y="32.75" width="32.75" height="32.75" fill="#D43925"/>
<rect x="720.875" y="32.75" width="32.75" height="32.75" fill="#FCFCFC"/>
<rect x="753.625" y="32.75" width="32.75" height="32.75" fill="#D43925"/>
<rect x="786.375" y="32.75" width="32.75" height="32.75" fill="#FCFCFC"/>
<rect x="819.125" y="32.75" width="32.75" height="32.75" fill="#D43925"/>
<rect x="851.875" y="32.75" width="32.75" height="32.75" fill="#FCFCFC"/>
<rect x="884.625" y="32.75" width="32.75" height="32.75" fill="#D43925"/>
<rect x="917.375" y="32.75" width="32.75" height="32.75" fill="#FCFCFC"/>
<rect x="950.125" y="32.75" width="32.75" height="32.75" fill="#D43925"/>
<rect x="982.875" y="32.75" width="32.75" height="32.75" fill="#FCFCFC"/>
<rect x="1015.62" y="32.75" width="32.75" height="32.75" fill="#D43925"/>
<rect x="1048.38" y="32.75" width="32.75" height="32.75" fill="#FCFCFC"/>
<rect x="1081.12" y="32.75" width="32.75" height="32.75" fill="#D43925"/>
<rect x="1113.88" y="32.75" width="32.75" height="32.75" fill="#FCFCFC"/>
<rect x="1146.62" y="32.75" width="32.75" height="32.75" fill="#D43925"/>
<rect x="1179.38" y="32.75" width="32.75" height="32.75" fill="#FCFCFC"/>
<rect x="1212.12" y="32.75" width="32.75" height="32.75" fill="#D43925"/>
<rect x="1244.88" y="32.75" width="32.75" height="32.75" fill="#FCFCFC"/>
<rect x="1277.62" y="32.75" width="32.75" height="32.75" fill="#D43925"/>
<rect x="1310.38" y="32.75" width="32.75" height="32.75" fill="#FCFCFC"/>
<rect x="1343.12" y="32.75" width="32.75" height="32.75" fill="#D43925"/>
<rect x="1375.88" y="32.75" width="32.75" height="32.75" fill="#FCFCFC"/>
<rect x="1408.62" y="32.75" width="32.75" height="32.75" fill="#D43925"/>
<rect x="1441.38" y="32.75" width="32.75" height="32.75" fill="#FCFCFC"/>
<rect x="1474.12" y="32.75" width="32.75" height="32.75" fill="#D43925"/>
<rect x="1506.88" y="32.75" width="32.75" height="32.75" fill="#FCFCFC"/>
</svg>
